<?xml version="1.0" encoding="utf-8"?>
<!--
  - Copyright (c) 2016-2025 SoftVanguard, Inc.  All rights reserved.
  -
  - No part of this work may be reproduced or distributed without the
  - permission of SoftVanguard, Inc.
  -
  - If you are not authorized by SoftVanguard to utilize this software
  - and/or documentation, you must immediately discontinue any
  - further use or viewing of this software and documentation.
  - Violaters will be prosecuted to the fullest extent of the law by
  - SoftVanguard, Inc.
  -
  - Developed by SoftVanguard, Inc.
  -->

<!-- Generator: $$$/GeneralStr/196=Adobe Illustrator 27.6.0, SVG Export Plug-In . SVG Version: 6.00 Build 0)  -->
<svg version="1.1" id="uuid-a33e3e20-27ad-451e-b72d-cb06bc3e7aee"
	 xmlns="http://www.w3.org/2000/svg" xmlns:xlink="http://www.w3.org/1999/xlink" x="0px" y="0px" viewBox="0 0 136.4 26"
	 style="enable-background:new 0 0 136.4 26;" xml:space="preserve">
<style type="text/css">
	.st0{fill:#174B75;}
</style>
<path class="st0" d="M134,6.3c0.1,0.1,0.1,0.2,0.1,0.3s0.1,0.2,0.1,0.3c0,0.1,0.1,0.2,0.1,0.3s0.1,0.2,0.1,0.3h-0.6
	c0-0.2-0.1-0.4-0.1-0.5s-0.1-0.3-0.2-0.5h-0.3L133,7.6h-0.6l0.7-2.8c0.1,0,0.1,0,0.2,0s0.1,0,0.2,0c0.1,0,0.1,0,0.2,0h0.2
	c0.3,0,0.5,0.1,0.7,0.2s0.2,0.3,0.2,0.5c0,0.1,0,0.2,0,0.3s-0.1,0.2-0.1,0.3s-0.1,0.2-0.2,0.2S134.1,6.3,134,6.3L134,6.3L134,6.3z
	 M133.5,6c0.1,0,0.2,0,0.2,0c0.1,0,0.1-0.1,0.2-0.1c0.1-0.1,0.1-0.1,0.1-0.2s0.1-0.2,0.1-0.2c0-0.1,0-0.2-0.1-0.2
	c-0.1-0.1-0.2-0.1-0.3-0.1h-0.1h-0.1L133.3,6H133.5L133.5,6z"/>
<path class="st0" d="M133.6,9.1c-1.6,0-2.8-1.3-2.8-2.8s1.3-2.8,2.8-2.8s2.8,1.3,2.8,2.8S135.1,9.1,133.6,9.1z M133.6,4
	c-1.2,0-2.3,1-2.3,2.3s1,2.3,2.3,2.3s2.3-1,2.3-2.3S134.8,4,133.6,4z"/>
<path class="st0" d="M4.5,16.6c0.3,0,0.6,0,0.9-0.1s0.6-0.2,0.8-0.3c0.2-0.1,0.4-0.3,0.5-0.6s0.2-0.5,0.2-0.9c0-0.3-0.1-0.5-0.2-0.7
	s-0.2-0.4-0.4-0.6S5.9,13.2,5.7,13s-0.5-0.3-0.8-0.4c-0.4-0.2-0.7-0.4-1-0.6c-0.3-0.2-0.6-0.4-0.8-0.7s-0.4-0.6-0.5-0.9
	S2.4,9.7,2.4,9.1c0-1.3,0.4-2.3,1.3-3C4.5,5.4,5.7,5,7.3,5c0.5,0,1,0,1.4,0.1s0.8,0.2,1.1,0.3c0.3,0.1,0.6,0.2,0.8,0.3
	S11,5.9,11.2,6L10,8C9.6,7.8,9.2,7.6,8.7,7.4S7.6,7.2,6.9,7.2c-0.5,0-1,0.1-1.4,0.4C5.2,7.8,5,8.2,5,8.8c0,0.5,0.2,0.9,0.5,1.1
	s0.7,0.5,1.2,0.7c0.4,0.2,0.8,0.4,1.2,0.6c0.4,0.2,0.7,0.5,0.9,0.8s0.5,0.6,0.6,1s0.2,0.8,0.2,1.4c0,1.5-0.5,2.6-1.4,3.3
	c-0.9,0.8-2.3,1.1-4,1.1c-0.6,0-1.1,0-1.5-0.1c-0.5-0.1-0.8-0.2-1.2-0.3c-0.3-0.1-0.6-0.2-0.9-0.4S0.2,17.8,0,17.6l1.1-2
	c0.1,0.1,0.3,0.2,0.5,0.3C2,16,2.2,16.2,2.5,16.3s0.6,0.2,0.9,0.2C3.7,16.6,4.1,16.6,4.5,16.6L4.5,16.6L4.5,16.6z"/>
<path class="st0" d="M15.1,18.8c-1.2,0-2.1-0.3-2.7-1s-0.9-1.6-0.9-2.7c0-0.9,0.1-1.7,0.4-2.5c0.3-0.8,0.6-1.5,1.1-2.2
	c0.5-0.6,1.1-1.2,1.9-1.6s1.6-0.6,2.6-0.6s1.9,0.3,2.5,0.9c0.6,0.6,1,1.6,1,2.8c0,0.8-0.1,1.7-0.4,2.5c-0.2,0.8-0.6,1.5-1.1,2.2
	c-0.5,0.6-1.1,1.2-1.8,1.5C16.9,18.6,16,18.8,15.1,18.8L15.1,18.8L15.1,18.8z M15.6,16.5c0.4,0,0.8-0.1,1.1-0.4s0.6-0.6,0.9-1
	c0.2-0.4,0.4-0.8,0.5-1.2s0.2-0.9,0.2-1.3c0-0.7-0.1-1.2-0.3-1.6s-0.6-0.6-1.2-0.6c-0.4,0-0.8,0.1-1.1,0.4s-0.6,0.6-0.9,1
	c-0.2,0.4-0.4,0.8-0.5,1.2s-0.2,0.9-0.2,1.3c0,0.7,0.1,1.2,0.3,1.6C14.6,16.3,15,16.5,15.6,16.5L15.6,16.5L15.6,16.5z"/>
<path class="st0" d="M26.8,18c-0.3,1.3-0.8,2.4-1.5,3.1c-0.8,0.7-1.8,1.1-3,1.1c-0.4,0-0.8,0-1.2-0.1s-0.7-0.2-1-0.3l0.7-2.2
	c0.2,0.1,0.4,0.1,0.6,0.2c0.2,0,0.5,0.1,0.8,0.1s0.6,0,0.8-0.1c0.2-0.1,0.4-0.2,0.6-0.4c0.1-0.2,0.3-0.4,0.4-0.6s0.2-0.5,0.2-0.7
	l1.5-7.2h-2.2L24,8.5h2.1l0.1-0.6c0.2-0.8,0.4-1.5,0.7-2s0.7-1,1.1-1.3c0.4-0.3,0.9-0.6,1.4-0.7c0.5-0.1,1.1-0.2,1.6-0.2
	s0.9,0,1.3,0.1s0.8,0.2,1.2,0.4l-0.9,2.1C32.3,6.2,32,6.1,31.8,6S31.3,5.9,31,5.9s-0.5,0-0.7,0.1c-0.2,0-0.4,0.1-0.6,0.3
	c-0.2,0.1-0.4,0.3-0.5,0.6S28.9,7.5,28.9,8l-0.1,0.6h3.6l-0.5,2.2h-3.5L26.8,18L26.8,18L26.8,18z"/>
<path class="st0" d="M35.9,10.6h-2l0.5-2.2h2L37,5.9l2.8-0.4l-0.7,3h3.8l-0.5,2.2h-3.8l-0.9,3.9c-0.1,0.4-0.1,0.6-0.1,0.8
	c0,0.4,0.2,0.7,0.4,0.9c0.3,0.1,0.6,0.2,1,0.2s0.8,0,1.2-0.1s0.8-0.2,1.2-0.4v2.2c-0.4,0.2-0.9,0.4-1.5,0.5s-1.1,0.1-1.6,0.1
	c-1.1,0-2-0.2-2.6-0.7s-0.8-1.2-0.8-2.1c0-0.2,0-0.5,0-0.7s0.1-0.5,0.2-0.8L35.9,10.6L35.9,10.6L35.9,10.6z"/>
<path class="st0" d="M45.9,18.5c-0.1-0.8-0.2-1.7-0.3-2.7s-0.2-2-0.2-3c-0.1-1-0.1-2.1-0.1-3.1c0-1.1-0.1-2.1-0.1-3
	c0-0.2,0-0.4,0-0.6s0-0.4,0-0.5h2.7c0,0.7,0,1.4-0.1,2.3c0,0.8,0,1.7,0,2.6c0,1,0,1.9,0,2.9c0,0.9,0.1,1.8,0.1,2.6
	c0.4-0.7,0.8-1.6,1.2-2.5s0.9-1.9,1.3-2.8c0.4-0.9,0.8-1.9,1.2-2.8s0.7-1.7,1-2.3h2.7c-0.4,0.8-0.8,1.8-1.3,2.8s-1,2.1-1.6,3.3
	c-0.6,1.1-1.2,2.3-1.8,3.5s-1.3,2.3-2,3.4h-2.7V18.5z"/>
<path class="st0" d="M57.4,18.8c-0.9,0-1.7-0.4-2.2-1c-0.5-0.7-0.8-1.6-0.8-2.9c0-1,0.2-1.9,0.5-2.7s0.8-1.5,1.3-2.1s1.2-1,2-1.4
	c0.8-0.3,1.6-0.5,2.4-0.5c0.6,0,1.2,0.1,1.8,0.2s1.2,0.3,1.8,0.5l-1.3,5.5c-0.1,0.3-0.1,0.5-0.1,0.8s0,0.5,0,0.8
	c0,0.4,0,0.8,0.1,1.2c0.1,0.4,0.2,0.8,0.3,1.2l-2.3,0.4c0-0.1-0.1-0.1-0.1-0.2s-0.1-0.2-0.1-0.3S60.5,18,60.5,18s0-0.1-0.1-0.2
	c-0.3,0.2-0.7,0.4-1.2,0.7C58.8,18.7,58.2,18.8,57.4,18.8L57.4,18.8z M58.3,16.5c0.4,0,0.7-0.1,1-0.3c0.3-0.2,0.5-0.4,0.7-0.6
	c0-0.2,0.1-0.4,0.1-0.6s0.1-0.4,0.1-0.6l0.9-3.8c-0.2,0-0.3-0.1-0.5-0.1s-0.3,0-0.5,0c-0.5,0-1,0.1-1.3,0.4c-0.4,0.2-0.7,0.6-1,0.9
	c-0.3,0.4-0.5,0.8-0.7,1.3s-0.2,1-0.2,1.5c0,0.4,0,0.7,0.1,0.9s0.2,0.4,0.3,0.6c0.1,0.1,0.3,0.2,0.4,0.3S58.1,16.5,58.3,16.5
	C58.4,16.5,58.3,16.5,58.3,16.5z"/>
<path class="st0" d="M66.9,8.9c0.4-0.1,1-0.3,1.7-0.4c0.7-0.1,1.5-0.2,2.3-0.2c1.2,0,2.1,0.3,2.6,0.8s0.8,1.2,0.8,2.1
	c0,0.2,0,0.5-0.1,0.8c0,0.3-0.1,0.6-0.2,0.9l-1.4,5.7H70l1.3-5.3c0-0.2,0.1-0.5,0.2-0.7s0.1-0.5,0.1-0.7c0-0.3-0.1-0.6-0.3-0.9
	s-0.5-0.4-1-0.4c-0.2,0-0.4,0-0.6,0.1c-0.2,0-0.4,0.1-0.6,0.2l-1.9,7.8h-2.6L66.9,8.9L66.9,8.9L66.9,8.9z"/>
<path class="st0" d="M83.8,17.4c-0.2,0.8-0.4,1.5-0.8,2.1s-0.7,1.1-1.2,1.5s-1,0.7-1.7,0.9c-0.6,0.2-1.4,0.3-2.3,0.3
	c-0.8,0-1.4-0.1-1.9-0.2s-1.1-0.4-1.6-0.6l0.9-2.1c0.4,0.2,0.8,0.3,1.2,0.5c0.5,0.1,1,0.2,1.6,0.2c0.9,0,1.5-0.2,1.9-0.5
	c0.4-0.4,0.7-0.9,0.9-1.5l0.1-0.6c-0.3,0.2-0.6,0.3-1,0.4c-0.3,0.1-0.6,0.1-0.9,0.1c-1.1,0-2-0.3-2.5-1S76,15.4,76,14.3
	c0-1,0.2-1.8,0.5-2.6c0.3-0.8,0.8-1.4,1.4-1.9s1.2-0.9,2-1.2s1.5-0.4,2.3-0.4c0.6,0,1.2,0.1,1.8,0.1s1.2,0.2,1.7,0.5L83.8,17.4z
	 M82.8,10.5c-0.3-0.1-0.7-0.1-1-0.1c-0.5,0-0.9,0.1-1.3,0.3s-0.7,0.5-1,0.8s-0.5,0.7-0.7,1.2s-0.2,0.9-0.2,1.4
	c0,0.4,0.1,0.8,0.3,1.1c0.2,0.3,0.6,0.5,1.1,0.5c0.2,0,0.4,0,0.8-0.1c0.3-0.1,0.6-0.2,0.9-0.4L82.8,10.5L82.8,10.5z"/>
<path class="st0" d="M89.8,18.8c-1.2,0-2-0.3-2.4-0.8c-0.5-0.5-0.7-1.3-0.7-2.2c0-0.7,0.1-1.4,0.3-2.3l1.2-5h2.6l-1.1,4.8
	c-0.1,0.4-0.2,0.8-0.3,1.2c-0.1,0.4-0.1,0.7-0.1,0.9c0,0.7,0.4,1.1,1.1,1.1c0.4,0,0.7-0.1,0.9-0.2c0.2-0.2,0.5-0.4,0.7-0.6
	c0-0.2,0.1-0.4,0.1-0.6c0-0.2,0.1-0.4,0.1-0.6l1.4-5.9h2.6l-1.4,6c-0.1,0.3-0.1,0.5-0.1,0.8s-0.1,0.5-0.1,0.8c0,0.4,0,0.8,0.1,1.2
	s0.2,0.8,0.3,1.2L92.7,19c0-0.1-0.1-0.1-0.1-0.2s-0.1-0.2-0.1-0.3s0-0.5,0-0.5s-0.1-0.1-0.1-0.2c-0.3,0.2-0.7,0.4-1.1,0.7
	C90.9,18.7,90.4,18.8,89.8,18.8z"/>
<path class="st0" d="M100.2,18.8c-0.9,0-1.7-0.4-2.2-1c-0.5-0.7-0.8-1.6-0.8-2.9c0-1,0.2-1.9,0.5-2.7s0.8-1.5,1.3-2.1s1.2-1,2-1.4
	c0.8-0.3,1.6-0.5,2.4-0.5c0.6,0,1.2,0.1,1.8,0.2s1.2,0.3,1.8,0.5l-1.3,5.5c-0.1,0.3-0.1,0.5-0.1,0.8s0,0.5,0,0.8
	c0,0.4,0,0.8,0.1,1.2c0.1,0.4,0.2,0.8,0.3,1.2l-2.3,0.4c0-0.1-0.1-0.1-0.1-0.2s-0.1-0.2-0.1-0.3s-0.1-0.2-0.1-0.3s-0.1-0.1-0.1-0.2
	c-0.3,0.2-0.7,0.4-1.2,0.7C101.6,18.7,101,18.8,100.2,18.8L100.2,18.8z M101.2,16.5c0.4,0,0.7-0.1,1-0.3c0.3-0.2,0.5-0.4,0.7-0.6
	c0-0.2,0.1-0.4,0.1-0.6s0.1-0.4,0.1-0.6l0.9-3.8c-0.2,0-0.3-0.1-0.5-0.1s-0.3,0-0.5,0c-0.5,0-0.9,0.1-1.3,0.4
	c-0.4,0.2-0.7,0.6-1,0.9c-0.3,0.4-0.5,0.8-0.7,1.3s-0.2,1-0.2,1.5c0,0.4,0,0.7,0.1,0.9s0.2,0.4,0.3,0.6c0.1,0.1,0.3,0.2,0.4,0.3
	C100.8,16.5,101,16.5,101.2,16.5L101.2,16.5z"/>
<path class="st0" d="M117,11.1c-0.3-0.1-0.6-0.2-1-0.2c-0.4-0.1-0.8-0.1-1.4-0.1c-0.4,0-0.8,0-1.2,0.1c-0.4,0.1-0.8,0.1-1.1,0.2
	l-1.8,7.5H108l2.2-9.4c0.7-0.3,1.4-0.5,2.2-0.6c0.8-0.1,1.5-0.2,2.2-0.2c0.8,0,1.4,0,2,0.1s1,0.2,1.4,0.3L117,11.1L117,11.1
	L117,11.1z"/>
<path class="st0" d="M127.2,14.4c-0.1,0.3-0.1,0.5-0.1,0.8s0,0.5,0,0.8c0,0.4,0,0.8,0.1,1.2c0.1,0.4,0.2,0.8,0.3,1.2l-2.3,0.4
	c0-0.1-0.1-0.1-0.1-0.2s-0.1-0.2-0.1-0.3s-0.1-0.2-0.1-0.3s-0.1-0.1-0.1-0.2c-0.3,0.2-0.7,0.4-1.2,0.7c-0.5,0.2-1.1,0.3-1.9,0.3
	c-0.9,0-1.7-0.4-2.2-1c-0.5-0.7-0.8-1.6-0.8-2.9c0-1,0.2-1.9,0.5-2.7s0.8-1.5,1.3-2.1c0.6-0.6,1.2-1,2-1.3s1.6-0.5,2.4-0.5
	c0.4,0,0.8,0.1,1.1,0.1l1-4.3l2.7-0.5L127.2,14.4L127.2,14.4L127.2,14.4z M122.6,16.5c0.4,0,0.7-0.1,1-0.3c0.3-0.2,0.5-0.4,0.7-0.6
	c0-0.2,0.1-0.4,0.1-0.6s0.1-0.4,0.1-0.6l0.9-3.8c-0.2,0-0.3-0.1-0.5-0.1s-0.3,0-0.5,0c-0.5,0-0.9,0.1-1.3,0.4
	c-0.4,0.2-0.7,0.6-1,0.9c-0.3,0.4-0.5,0.8-0.7,1.3s-0.2,1-0.2,1.5c0,0.4,0,0.7,0.1,0.9s0.2,0.4,0.3,0.6c0.1,0.1,0.3,0.2,0.4,0.3
	S122.4,16.5,122.6,16.5L122.6,16.5z"/>
</svg>
