<?xml version="1.0" encoding="utf-8"?>
<!--
  - Copyright (c) 2016-2025 SoftVanguard, Inc.  All rights reserved.
  -
  - No part of this work may be reproduced or distributed without the
  - permission of SoftVanguard, Inc.
  -
  - If you are not authorized by SoftVanguard to utilize this software
  - and/or documentation, you must immediately discontinue any
  - further use or viewing of this software and documentation.
  - Violaters will be prosecuted to the fullest extent of the law by
  - SoftVanguard, Inc.
  -
  - Developed by SoftVanguard, Inc.
  -->

<!-- Generator: $$$/GeneralStr/196=Adobe Illustrator 27.6.0, SVG Export Plug-In . SVG Version: 6.00 Build 0)  -->
<svg version="1.1" id="uuid-d5b5dd3c-96fd-4436-b530-70deada8c234"
	 xmlns="http://www.w3.org/2000/svg" xmlns:xlink="http://www.w3.org/1999/xlink" x="0px" y="0px" viewBox="0 0 18.3 26"
	 style="enable-background:new 0 0 18.3 26;" xml:space="preserve">
<style type="text/css">
	.st0{fill:#174B75;}
</style>
<path class="st0" d="M10.1,0.8L10.1,0.8l-3.5,1h0l1.3,1.3L1.4,9.5l0,0c0,0-0.1,0.1-0.1,0.1C1.2,9.7,1.1,9.8,1.1,9.9
	c-1,1.2-1.4,2.9-0.8,4.5c0,0.1,0.1,0.3,0.2,0.4c0,0,0,0,0,0l0,0l2.9-2.9l0.2-0.2l0,0v0l0,0l3.2-3.2l0,0L10,5.3l1.3,1.3l1-3.5l0-0.1
	l0.9-3v0L10.1,0.8z"/>
<path class="st0" d="M15.6,9c-1.1-0.6-2.4-0.7-3.7-0.3c-0.6,0.2-1.1,0.5-1.6,0.9c-0.1,0.1-0.2,0.2-0.4,0.3l0,0l-0.9,0.9l0,0l0,0
	L5.9,14h0v0l-0.1,0.1l-0.2,0.1l-3,3l0,0c0,0,0,0,0,0c1.1,0.5,2.4,0.7,3.7,0.3c0.6-0.2,1.1-0.5,1.6-0.8c0.1-0.1,0.3-0.2,0.4-0.3
	c0,0,0.1-0.1,0.1-0.1l0.8-0.8l0,0l0,0l3.2-3.2h0v0l0.1-0.1l0.1-0.1L15.6,9L15.6,9C15.6,9,15.6,9,15.6,9L15.6,9L15.6,9z"/>
<path class="st0" d="M17.8,11.4l-2.9,2.9l-0.2,0.2l0,0l-3.2,3.2l0,0l-3.2,3.2h0l-0.6,0.6v0l0,0L7.6,26l0,0v0l0,0c0,0,0,0,0,0h0
	l2.2-2.2l0,0l0.6-0.6h0l6.4-6.4h0c0,0,0-0.1,0.1-0.1l0,0c0.1-0.1,0.1-0.1,0.2-0.2c1-1.2,1.5-3,0.9-4.6C18,11.7,17.9,11.5,17.8,11.4
	C17.9,11.4,17.9,11.3,17.8,11.4C17.8,11.3,17.8,11.4,17.8,11.4z"/>
</svg>
